<svg version="1.2" xmlns="http://www.w3.org/2000/svg" viewBox="0 0 1080 1015" width="1080" height="1015">
	<style>
		.s0 { fill: #0368ab } 
		.s1 { fill: #97cd28 } 
	</style>
	<g>
		<path class="s0" d="m314 694.7c0-18.5-0.3-35.3-0.6-37.3l-0.7-3.9h-14.1-14.2v-10.2-10.2l9-0.1c27.9-0.5 62.1-0.5 68.5-0.1l7.4 0.5v10.3 10.3h-14-14.1l-0.3 37.1-0.2 37h-13.3-13.3v-33.4z"/>
		<path class="s0" d="m370.4 680.4l0.3-47.9h37.8 37.8l0.3 10.5 0.3 10.4h-24.6-24.5v8.2 8.2h21.5 21.5v9.7 9.7l-3.8 0.1c-2.1 0.1-9.9 0.1-17.3-0.1-7.4-0.1-15.3 0.1-17.7 0.5l-4.2 0.7v8.1 8.1h25.1 25.1v10.7 10.7h-38.9-38.9l0.2-47.8z"/>
		<path class="s0" d="m453.1 680.4v-47.9l10.5 0.2c5.7 0.1 10.9 0.2 11.7 0.2 0.6 0.1 3.8 4.4 7.1 9.6 21.7 35.3 27.5 44.5 28 44.1 0.3-0.3 7.7-12.4 16.4-26.7 12.7-21 16.4-26.4 18.4-26.8 1.4-0.3 6.9-0.5 12.1-0.3l9.4 0.3v47.6 47.5h-12.8-12.8l-0.1-24.8c0-23.6-0.1-24.8-1.7-22.4-0.9 1.3-6.5 10.2-12.5 19.9l-10.7 17.5-5.6 0.3c-3.1 0.1-6.1-0.1-6.8-0.5-0.6-0.5-6.1-8.9-12.1-18.7-6-9.8-11.5-18.3-12-18.8-0.5-0.6-0.9 8.3-0.9 23.2v24.2h-12.8-12.8v-47.8z"/>
		<path class="s0" d="m574.8 680.6v-47.6h13.8 13.8v47.6 47.6h-13.8-13.8z"/>
		<path class="s0" d="m606.5 720.3c0-5.8 0.5-8.7 1.8-10.7 0.9-1.4 11.7-14.2 23.7-28.3 12.1-14.2 22.2-26.2 22.3-26.7 0.2-0.6-8.4-1-22.7-1-17.8 0-23.1-0.3-23.2-1.2 0-0.7-0.1-5.3-0.2-10.3l-0.2-8.9 12.8-0.1c12-0.1 30.6-0.1 58.6 0.1h12v8c0 9.2 0.4 8.4-12.8 23.7-15.3 17.9-34.3 40.7-34.3 41.3 0 0.3 11 0.6 24.5 0.6h24.5v10.7 10.7h-43.5-43.5v-7.9z"/>
		<path class="s0" d="m695.5 680.4v-47.9h13.1 13l0.5 36.8 0.5 36.8 22.8 0.3 22.7 0.2v10.7 10.7h-36.3-36.3v-47.8z"/>
		<path class="s0" d="m769.1 680.6v-47.6h13.8 13.8v47.6 47.6h-13.8-13.8z"/>
		<path class="s0" d="m804.9 680.6v-47.6h13.8 13.8v19c0 11.7 0.4 18.8 1 18.6 0.5-0.1 8.7-8.6 18.2-18.7l17.2-18.4 15-0.3c8.3-0.1 15 0 15 0.3 0 0.4-8.1 9.5-18 20.3-9.9 10.8-18.3 20.1-18.5 20.9-0.3 0.7 8.2 12.5 18.8 26.1 10.6 13.7 19.6 25.5 20.1 26.2 0.6 0.9-2.8 1.2-15.2 1.2h-15.9l-11-14c-6-7.7-12.2-15.3-13.8-17.1l-2.8-3.2-5.1 5.6-5.1 5.6v11.6 11.5h-13.8-13.8v-47.6z"/>
		<path class="s0" d="m584.5 624.8c-1.7-0.5-4.5-2.3-6.1-4-2.7-2.8-3.1-4-3.1-8.8 0-5.2 0.3-5.9 3.8-9.1 4.9-4.6 9.5-5.4 15.3-2.8 8.9 3.9 10.6 14.8 3.5 21.4-2 1.8-4.5 3.4-5.6 3.4-1.1 0-2.6 0.2-3.4 0.4-0.7 0.2-2.8 0-4.4-0.5z"/>
		<path class="s0" d="m778.9 624.9c-7-2.1-11-9.9-8.9-16.7 1.5-4.5 6.1-8.6 10.7-9.5 5-0.9 12.3 2.6 14.4 6.9 3.9 7.4-0.4 17.1-8.6 19.3-4.2 1.1-3.7 1.1-7.7 0z"/>
		<path class="s0" d="m412.2 535.4v-47.6h11.8 11.7l20.6 24.5c11.4 13.5 21 24.5 21.3 24.5 0.4 0 0.6-9.1 0.4-20.1-0.2-11.1 0-22.2 0.3-24.5l0.6-4.4h13.3 13.2v47.6 47.6h-11.6-11.5l-13-15.5c-7.1-8.6-16.6-19.9-21.2-25.2l-8.3-9.5-0.2 24.9-0.3 24.9-13.5 0.3-13.6 0.3v-47.7z"/>
		<path class="s0" d="m513.4 535.4v-47.6h52.2 52.1l3.1 10c7.8 24.9 16.4 49.6 16.9 48.3 5-15.4 18.5-55.2 19.2-56.5 0.8-1.6 2.6-1.8 13.4-1.8h12.6l9.6 29.7c5.2 16.4 9.9 29.4 10.2 28.9 0.4-0.5 4.9-13.8 10.1-29.7l9.4-28.9h13.3c11.5 0 13.3 0.2 12.8 1.5-0.3 0.8-7.4 22.2-15.6 47.6l-15.1 46.1-14.8-0.3-14.7-0.3-8.8-27.1c-4.8-14.9-9-27.8-9.4-28.6-0.7-1.8 0.5-5.3-10.6 28.9l-9 27.4-14.8-0.3-14.8-0.3-15-45.5-15-45.5-0.3 8.2-0.4 8.2-24.2 0.3-24.3 0.2v8.2 8.2h21.5 21.5v10.2 10.2h-21.5-21.5v8.2 8.2h25 25l0.4 7.5c0.2 4 0.1 8.9-0.1 10.7l-0.3 3.3h-38.8-38.8v-47.6z"/>
		<path class="s0" d="m279.5 506.6c1.4-1.7 1-3.4-4-20.3-13.2-43.7-12.9-42.2-12.5-51.6 0.4-10.7 2.5-15.3 11.5-25.3 11.5-12.8 14.6-22.8 11-34.8-2.6-8.4-4.4-10.9-7.6-11-2 0-2.8-1.1-5.6-9.7-5.3-15.9-6.8-14 17.4-21.2 14-4.3 21.1-5.9 21.9-5.2 1.4 1.1 7.5 18.7 7.5 21.7 0 1-0.8 2.5-1.7 3.2-1.5 1.1-1.4 1.7 1.8 6.8 1.9 3.1 9 12.4 15.8 20.9 22.1 27.8 31.3 41.6 40 60.2 4.4 9.6 6.2 11.5 3.9 4-5.4-17.9-6.5-24.2-6.5-37.8 0-8.6-0.6-16.7-1.6-21.6-2.8-13.5-30-111.5-32-115.6-2.6-5-9.3-11.1-15.2-13.7-8.8-3.9-14-3.6-36.3 2.1-21.6 5.5-27 6.1-35.1 3.7-6.1-1.8-9.8-5.5-12.1-12.2-2.3-7.1-2.1-7.6 2.3-8.7 2-0.5 37.4-9.8 78.4-20.6 41.1-10.8 83-21.9 93.4-24.5l18.7-4.9 1 2.7c1.5 4 2.3 10.9 1.5 14-0.8 3.2-7.8 10.9-12.3 13.7-1.7 1-11.5 4.1-21.6 6.6-10.1 2.7-20.8 5.9-23.7 7.4-6.5 3.2-13.9 11.1-16.1 17.5-3.1 8.9-2.3 13.8 8.1 51.8 20.4 74.5 23 82.5 31.2 94.8 5 7.5 7.3 13.3 12.2 31.2 1 4 2.5 7.1 3.1 7 0.6-0.2 1.1 0.5 1.1 1.6 0 1.5-2.7 2.9-13.5 6.8-40.5 14.4-66.3 26.8-96.4 46.3-5.6 3.6-13.1 8.8-16.5 11.6-4.7 3.7-7.2 5-9.6 5-3.2 0-3.3-0.1-1.7-1.7z"/>
		<path class="s0" d="m451 428.5c0-0.5 0.7-1 1.5-1 1.9 0 2.3-1.4 4.1-20.9 1.7-18.6 1.9-25.9 0.6-26.4-0.5-0.1-2.5-3.5-4.4-7.4l-3.5-7.2-9.4-2.7c-9.9-2.9-12.7-4.6-14.4-9-1.3-3.3-5.4-26-4.8-26.5 0.2-0.3 1.3 0 2.4 0.5 3.6 1.9 23.4 6.3 37.6 8.5 17.5 2.6 52.4 3.8 61.3 2 3.4-0.6 6.2-0.9 6.4-0.7 1 1-7.6 21.8-10.3 25-3.9 4.4-6.4 5.4-16.5 6.2l-8.1 0.6-3.3 4.6c-4.2 5.8-6.9 8.8-8.4 9.3-0.6 0.2-1.9 7.7-3.2 18.3-1.8 15.6-1.8 18-0.6 19 3.5 2.7 1.6 4-9 6.3-11.3 2.5-18.1 2.9-18.1 1.2z"/>
		<path class="s0" d="m240.8 363.4c0.3-1 1.1-5.3 1.7-9.5 1.4-9.2 0.6-18.8-2.1-28-2.5-7.8-2.9-7.9-13.4-5.2-3.4 0.9-6.4 1.4-6.9 1.1-1-0.6-6.9-18.8-6.2-19.3 2.7-2.1 65.4-29.5 69.8-30.4 4.6-1.1 7.3-1.1 12.4-0.2 6.8 1.2 17 5 17 6.3 0 0.4-1.8 2.1-4.1 4-8.6 7-10.6 15.6-6.8 28.6 1.4 4.8 2.7 9.2 2.7 9.8 0 1.1-11.1 4.9-27.5 9.4-6.1 1.6-6.5 1.6-7.8 0-0.9-1.3-2.8-1.7-7.5-1.7-6.9 0-6.3-0.7-8 10.2-0.8 5.9-4.6 15.3-8.7 21.6-3.2 4.9-5.6 6.6-4.6 3.3z"/>
		<path class="s0" d="m478.9 332.3c-18.8-1.6-44.5-6.5-53.8-10.3-3-1.1-3.1-1.3-4.8-13.6-2.8-19.1-10.8-48.6-18.4-66.9-1.6-4-2.7-7.4-2.3-7.6 0.4-0.2 6 0.1 12.5 0.7l11.7 1.1 3.9 13.3c4.7 16.2 9.1 35.9 12.5 56.1 4 23.2 4.9 21 2.1-5.2-1.6-15.6-5.3-38.5-8.7-53.9-1.1-5-1.9-9.3-1.7-9.4 0.4-0.4 29.8 2.7 30.2 3.2 0.2 0.2 0.4 13.5 0.4 29.7 0.1 16.1 0.2 29 0.3 28.9 0.2-0.2 1.8-13 3.7-28.4 1.8-15.4 3.7-28.5 4-28.9 0.6-0.7 55.5 4.8 58.9 5.9 0.7 0.2-0.3 4.5-2.9 12-4.3 12.5-17.5 62.8-16.9 64.5 0.2 0.6 2.4-4.7 4.7-11.7 6.9-19.5 13.7-36.3 20.7-50.9 5.5-11.7 6.6-13.3 8.5-12.9 1.2 0.2 6.8 0.9 12.4 1.6 5.6 0.6 10.4 1.2 10.6 1.4 0.2 0.2-2.8 5.6-6.5 12-9.3 15.5-22.8 43.1-27 55.2-1.8 5.4-3.9 10.6-4.5 11.5-2.6 3.5-26.2 4.6-49.5 2.6z"/>
		<path class="s0" d="m202.1 318.3c-1.4-4.3-2.7-8.6-2.7-9.6 0-1.4 4.6-3.9 7.2-3.9 0.8 0 3.2 6 5.5 14l1.5 5.3-3.8 1.1c-2 0.5-4.1 1-4.5 1-0.3 0-1.8-3.6-3.3-8z"/>
	</g>
	<g>
		<path class="s1" d="m406 805.6c-45.1-15.6-71.5-28.2-103.2-49.3-28.1-18.7-55.3-45.8-68.7-68.6-6.2-10.7-11.7-23.7-14.9-35.9-2.6-9.2-2.8-11.7-2.8-30 0-18.6 0.2-20.7 2.9-30.2 3.5-12.9 12.8-31.8 21.8-44.5 8.7-12.2 27.3-31.5 40.7-42.2 22-17.7 59-39.3 85.3-49.8 2.6-1 6.5-2.7 8.8-3.7 2.3-1 4.6-1.9 5.1-2 0.6-0.1 8.2-2.9 16.9-6 8.7-3.2 16.6-5.9 17.4-6.1 0.8-0.2 7.1-1.9 13.8-3.9 6.8-1.9 20.1-5.3 29.7-7.5 9.6-2.1 17.6-4.3 17.7-4.7 0.2-0.5 0.8-0.6 1.3-0.2 0.5 0.3 4.5-0.2 8.9-1 10.3-2.1 32.1-5.3 49.3-7.2 72.9-8.1 150.4-4.9 217.8 9 28 5.8 33.8 7.2 33.8 8 0 1.1-1.4 1-12.3-1.2-12.2-2.6-46.1-6.8-64.9-8.2-33.2-2.4-103.8-0.8-135.5 3.2-88.2 10.8-163 35.2-221.5 72-45.9 28.8-76.2 62.7-89.2 99.7-5.4 15.5-6.9 24.3-6.8 42.4 0.1 18 1.7 26.6 8.6 44.3 3.5 9 13.5 26.4 20.7 35.8 14.4 19.1 42.2 43.3 68.3 59.5 13.4 8.3 40 21.9 50.6 26 12.3 4.6 12.7 6.5 0.5 2.4z"/>
	</g>
</svg>